PathFileType	4	(X/Y/Z)	./motion_analysis/DM_ngait_tm_slow1_new.trc
DataRate	CameraRate	NumFrames	NumMarkers	Units	OrigDataRate	OrigDataStartFrame	OrigNumFrames
120	120	7	68	mm	120	198	1585
Frame#	Time	Sternum			Neck			R_Shoulder			L_Shoulder			Xiphoid			Thoracic			R_Asis			L_Asis			R_Psis			L_Psis			Lumbar			R_Elbow			R_ElbowMedial			R_ShoulderAnterior			R_ShoulderPosterior			R_Wrist			R_Radius			R_Ulna			L_Elbow			L_ElbowMedial			L_ShoulderAnterior			L_ShoulderPosterior			L_Wrist			L_Ulna			L_Radius			L_Thigh_Superior			L_Thigh_Inferior			L_Thigh_Lateral			L_Knee_Lateral			L_Knee_Medial			L_Patella			L_Shank_Superior			L_Shank_Inferior			L_Shank_Lateral			L_Ankle_Lateral			L_Ankle_Medial			R_Thigh_Superior			R_Thigh_Inferior			R_Thigh_Lateral			R_Knee_Lateral			R_Knee_Medial			R_Patella			R_Shank_Superior			R_Shank_Inferior			R_Shank_Lateral			R_Ankle_Lateral			RankleMedial			R_Heel			R_Toe			R_Midfoot_Medial			R_Midfoot_Lateral			R_Hindfoot			R_Midfoot_Superior			R_ToeMedial			R_ToeLateral			L_Heel			L_Toe			L_Midfoot_Medial			L_Midfoot_Lateral			L_Hindfoot			L_Midfoot_Superior			L_ToeMedial			L_ToeLateral			Oglobal			Sacral			Xglobal			Yglobal			Zglobal			
		X1	Y1	Z1	X2	Y2	Z2	X3	Y3	Z3	X4	Y4	Z4	X5	Y5	Z5	X6	Y6	Z6	X7	Y7	Z7	X8	Y8	Z8	X9	Y9	Z9	X10	Y10	Z10	X11	Y11	Z11	X12	Y12	Z12	X13	Y13	Z13	X14	Y14	Z14	X15	Y15	Z15	X16	Y16	Z16	X17	Y17	Z17	X18	Y18	Z18	X19	Y19	Z19	X20	Y20	Z20	X21	Y21	Z21	X22	Y22	Z22	X23	Y23	Z23	X24	Y24	Z24	X25	Y25	Z25	X26	Y26	Z26	X27	Y27	Z27	X28	Y28	Z28	X29	Y29	Z29	X30	Y30	Z30	X31	Y31	Z31	X32	Y32	Z32	X33	Y33	Z33	X34	Y34	Z34	X35	Y35	Z35	X36	Y36	Z36	X37	Y37	Z37	X38	Y38	Z38	X39	Y39	Z39	X40	Y40	Z40	X41	Y41	Z41	X42	Y42	Z42	X43	Y43	Z43	X44	Y44	Z44	X45	Y45	Z45	X46	Y46	Z46	X47	Y47	Z47	X48	Y48	Z48	X49	Y49	Z49	X50	Y50	Z50	X51	Y51	Z51	X52	Y52	Z52	X53	Y53	Z53	X54	Y54	Z54	X55	Y55	Z55	X56	Y56	Z56	X57	Y57	Z57	X58	Y58	Z58	X59	Y59	Z59	X60	Y60	Z60	X61	Y61	Z61	X62	Y62	Z62	X63	Y63	Z63	X64	Y64	Z64	X65	Y65	Z65	X66	Y66	Z66	X67	Y67	Z67	X68	Y68	Z68	

199	1.658333	-781.255	1401.03	459.313	-631.519	1484.45	415.207	-754.547	1414.95	274.134	-649.89	1454.88	606.547	-797.819	1231.58	470.638	-538.458	1297.05	416.81	-737.088	998.84	334.79	-690.03	1010.25	609.2809999999999	-520.241	1052.07	409.07	-509.475	1056.03	485.663	-519.481	1103.5	440.6	-747.0359999999999	1100.3	175.014	-0	0	0	-0	0	0	-0	0	0	-874.124	874.1130000000001	269.823	-853.508	887.567	309.266	-837.3819999999999	861.611	241.947	-549.434	1130.97	701.005	-0	0	0	-0	0	0	-0	0	0	-600.143	868.098	720.523	-553.2569999999999	878.183	722.075	-610.625	881.337	675.505	-656.0940000000001	845.175	644.074	-749.329	637.575	623.221	-771.992	734.3680000000001	595.332	-0	0	0	-0	0	0	-807.934	542.821	581.117	-716.479	487.765	633.092	-618.7809999999999	234.784	627.825	-706.379	342.664	565.352	-0	0	0	-0	0	0	-635.936	816.657	303.316	-631.825	602.53	351.397	-713.647	659.577	404.87	-0	0	0	-0	0	0	-689.746	512.3680000000001	436.35	-0	0	0	-536.116	206.598	360.027	-610.242	323.381	433.33	-0	0	0	-0	0	0	-429.462	78.06019999999999	407.557	-729.552	64.6075	416.222	-649.164	43.0125	465.168	-642.1319999999999	44.2292	348.114	-530.792	43.7299	356.961	-591.847	132.526	411.205	-693.581	53.2123	459.321	-690.327	54.1191	366.386	-523.354	133.662	567.535	-811.14	61.3421	599.914	-735.144	58.8695	540.729	-710.7089999999999	58.1032	652.5700000000001	-606.08	76.8507	632.4829999999999	-694.7809999999999	153.112	592.777	-775.524	52.6026	551.825	-765.45	50.3499	648.323	-0	0	0	-514.8579999999999	1054.05	447.367	-200	0	0	-0	0	200	-0	200	0	
200	1.666667	-781.196	1400.62	459.996	-631.761	1484.36	415.506	-754.907	1414.56	274.695	-649.559	1454.78	606.831	-797.274	1231.09	471.355	-538.241	1297.18	416.886	-736.278	998.58	335.142	-688.788	1009.96	609.749	-519.456	1052.27	409.169	-508.637	1056.24	485.735	-518.744	1103.71	440.765	-747.242	1099.83	175.919	-0	0	0	-0	0	0	-0	0	0	-874.2140000000001	873.836	271.025	-853.721	887.221	310.603	-837.495	861.197	243.261	-548.023	1131.01	700.598	-0	0	0	-0	0	0	-0	0	0	-598.109	868.008	720.485	-551.197	878.121	721.566	-608.9829999999999	881.228	675.462	-654.115	845.048	644.756	-747.1180000000001	637.404	622.783	-770.187	734.1799999999999	595.667	-0	0	0	-0	0	0	-806.328	543.595	580.3339999999999	-716.737	487.14	632.776	-628.143	230.676	628.925	-711.686	341.313	565.718	-0	0	0	-0	0	0	-634.388	816.6079999999999	303.678	-629.337	602.489	351.543	-711.371	659.1950000000001	405.052	-0	0	0	-0	0	0	-686.901	511.978	436.356	-0	0	0	-532.3049999999999	206.809	359.947	-606.553	323.298	433.46	-0	0	0	-0	0	0	-424.973	78.3751	407.831	-725.3680000000001	64.5124	416.278	-644.674	42.7865	465.108	-637.463	43.9891	348.066	-526.59	43.7195	356.937	-587.852	132.547	411.218	-689.3630000000001	53.169	459.272	-686.155	54.1244	366.272	-536.365	126.399	569.004	-826.145	62.8905	601.947	-750.343	57.8493	542.888	-725.774	56.9569	654.699	-620.603	72.4141	634.383	-707.02	151.108	594.355	-790.7619999999999	52.788	554.067	-780.721	50.7384	650.362	-0	0	0	-514.047	1054.25	447.452	-200	0	0	-0	0	200	-0	200	0	
201	1.675	-781.162	1400.2	460.633	-631.999	1484.28	415.837	-755.3680000000001	1414.14	275.379	-649.337	1454.63	607.194	-796.929	1230.63	472.151	-538.02	1297.3	417.011	-735.1559999999999	998.6369999999999	334.862	-687.532	1009.54	610.325	-518.529	1052.55	409.277	-507.817	1056.54	485.954	-517.789	1104.05	441.125	-747.457	1099.33	176.87	-0	0	0	-0	0	0	-0	0	0	-874.271	873.527	272.235	-853.787	886.768	311.707	-837.489	860.684	244.556	-546.873	1130.98	700.231	-0	0	0	-0	0	0	-0	0	0	-596.261	867.782	720.356	-549.4	878.051	721.133	-607.552	881.091	675.431	-652.1849999999999	844.987	645.4	-744.7619999999999	637.051	622.4349999999999	-768.259	733.823	595.932	-0	0	0	-0	0	0	-804.47	544.249	579.421	-716.753	486.532	632.474	-637.522	226.846	630.069	-716.915	340.177	566.111	-0	0	0	-0	0	0	-632.828	816.559	304.036	-626.941	602.343	351.788	-709.162	658.756	405.236	-0	0	0	-0	0	0	-684.223	511.534	436.484	-0	0	0	-528.454	207.027	359.899	-603.091	323.279	433.448	-0	0	0	-0	0	0	-420.804	78.6028	407.781	-721.143	64.5209	416.22	-640.427	42.8106	465.235	-633.313	44.0364	348.186	-522.337	43.7508	356.901	-583.6420000000001	132.601	411.309	-685.179	53.1653	459.328	-681.9059999999999	54.0581	366.353	-550.043	119.47	571.167	-841.072	64.9546	604.038	-766.013	57.613	544.747	-741.747	56.3119	656.62	-635.373	68.4093	636.282	-719.293	149.521	595.9349999999999	-806.006	53.5188	556.081	-796.028	51.6298	652.35	-0	0	0	-513.173	1054.54	447.616	-200	0	0	-0	0	200	-0	200	0	
202	1.683333	-781.148	1399.75	461.383	-632.244	1484.13	416.241	-755.753	1413.75	276.058	-649.24	1454.5	607.622	-796.485	1230.17	472.869	-537.803	1297.41	417.259	-734.737	997.996	336.058	-686.396	1009.5	610.9109999999999	-517.991	1052.63	409.604	-507.033	1056.68	486.1	-517.35	1104.12	441.256	-747.575	1098.85	177.895	-0	0	0	-0	0	0	-0	0	0	-874.174	873.102	273.395	-853.808	886.246	312.83	-837.4450000000001	860.127	245.8	-545.9299999999999	1131	700.003	-0	0	0	-0	0	0	-0	0	0	-594.696	867.653	720.3049999999999	-547.854	877.973	720.737	-606.347	880.943	675.478	-650.241	844.848	646.062	-742.211	636.6079999999999	622.107	-766.072	733.213	595.851	-0	0	0	-0	0	0	-802.422	544.739	578.345	-716.4589999999999	485.933	632.204	-646.919	223.386	631.2619999999999	-722.391	338.872	565.8630000000001	-0	0	0	-0	0	0	-631.224	816.522	304.374	-624.5309999999999	602.288	352.056	-706.9880000000001	658.319	405.516	-0	0	0	-0	0	0	-681.15	511.45	437.24	-0	0	0	-524.619	207.245	359.792	-599.776	323.19	433.283	-0	0	0	-0	0	0	-416.616	78.9083	407.674	-716.905	64.38509999999999	416.261	-636.147	42.6949	465.213	-629.059	43.7968	348.162	-518.074	43.7188	356.817	-579.87	132.645	411.175	-681.1660000000001	53.186	459.281	-677.6950000000001	54.1741	365.923	-563.285	112.687	572.6609999999999	-855.875	67.7174	606.0599999999999	-781.1799999999999	57.6636	546.933	-756.799	56.3165	658.7809999999999	-650.223	64.8665	638.234	-731.55	148.374	597.465	-821.263	54.9818	558.034	-811.366	53.1569	654.355	-0	0	0	-512.5119999999999	1054.66	447.852	-200	0	0	-0	0	200	-0	200	0	
203	1.691667	-781.158	1399.28	462.002	-632.516	1483.98	416.689	-756.079	1413.35	276.733	-649.175	1454.35	608.063	-796.091	1229.68	473.599	-537.624	1297.48	417.469	-733.077	998.155	334.94	-685.2910000000001	1009.09	611.5170000000001	-516.821	1052.95	409.772	-506.199	1056.93	486.574	-516.092	1104.5	441.829	-747.737	1098.37	178.988	-0	0	0	-0	0	0	-0	0	0	-874.095	872.6900000000001	274.521	-853.831	885.777	313.955	-837.2809999999999	859.5599999999999	247.016	-545.106	1131.02	699.842	-0	0	0	-0	0	0	-0	0	0	-593.346	867.491	720.287	-546.5170000000001	877.8819999999999	720.496	-605.251	880.8579999999999	675.585	-648.474	844.717	646.927	-739.498	636.009	621.822	-763.65	732.222	595.3049999999999	-0	0	0	-0	0	0	-800.182	545.024	576.986	-716.02	485.323	631.929	-656.313	220.22	632.374	-727.407	338.33	566.558	-0	0	0	-0	0	0	-629.673	816.437	304.698	-622.153	602.248	352.194	-704.836	657.8630000000001	405.761	-0	0	0	-0	0	0	-678.88	510.773	436.677	-0	0	0	-520.702	207.47	359.64	-596.412	323.109	433.118	-0	0	0	-0	0	0	-412.439	79.1494	407.578	-712.643	64.3014	416.24	-632.102	43.0182	464.665	-624.64	43.3169	347.632	-513.8390000000001	43.7259	356.809	-575.299	132.514	410.175	-676.475	53.2602	459.232	-673.381	54.1307	365.978	-576.514	106.547	574.114	-870.609	71.1991	607.966	-796.105	58.4648	548.9	-771.621	56.8011	660.721	-665.075	61.8819	640.033	-743.6660000000001	147.779	599.008	-836.425	57.0473	560.067	-826.4880000000001	55.404	656.345	-0	0	0	-511.51	1054.94	448.173	-200	0	0	-0	0	200	-0	200	0	
204	1.7	-781.2619999999999	1398.79	462.773	-632.777	1483.82	417.15	-756.454	1412.93	277.51	-649.165	1454.2	608.549	-795.818	1229.23	474.261	-537.468	1297.52	417.883	-732.098	997.76	335	-684.499	1008.86	612.079	-516.066	1053.02	410.124	-505.575	1057.02	487.015	-515.396	1104.59	442.295	-747.853	1097.87	180.062	-0	0	0	-0	0	0	-0	0	0	-873.936	872.182	275.635	-853.755	885.26	315.09	-837.1079999999999	858.977	248.205	-544.5119999999999	1131.01	699.866	-0	0	0	-0	0	0	-0	0	0	-592.188	867.314	720.278	-545.383	877.787	720.319	-604.417	880.747	675.749	-646.6609999999999	844.484	647.783	-736.6420000000001	635.289	621.639	-761.196	731.413	595.225	-0	0	0	-0	0	0	-797.9829999999999	545.439	575.833	-715.356	484.693	631.643	-665.593	217.436	633.319	-732.313	337.761	567.303	-0	0	0	-0	0	0	-628.088	816.359	305.146	-619.826	602.183	352.39	-702.807	657.443	405.824	-0	0	0	-0	0	0	-676.308	510.3	436.483	-0	0	0	-516.895	207.721	359.481	-593.151	323.033	432.882	-0	0	0	-0	0	0	-408.304	79.4234	407.439	-708.3390000000001	64.2402	416.089	-627.877	43.0813	464.738	-620.478	43.0931	347.7	-509.672	43.6824	356.799	-571.234	132.525	409.988	-672.42	53.2619	459.244	-669.2569999999999	54.0269	365.934	-590.056	100.769	575.779	-884.995	75.2376	609.941	-811.144	59.9469	550.848	-786.677	57.9607	662.667	-679.867	59.3524	641.888	-755.644	147.656	600.53	-851.33	59.8088	561.991	-841.429	58.2614	658.284	-0	0	0	-510.82	1055.02	448.569	-200	0	0	-0	0	200	-0	200	0	
205	1.708333	-781.3200000000001	1398.29	463.467	-633.056	1483.65	417.808	-756.752	1412.47	278.289	-649.211	1454.06	609.071	-795.579	1228.7	475.095	-537.333	1297.57	418.37	-731.396	997.2859999999999	335.617	-683.742	1008.57	612.703	-515.468	1053.07	410.654	-504.98	1057.08	487.539	-514.904	1104.64	442.833	-747.885	1097.35	181.137	-0	0	0	-0	0	0	-0	0	0	-873.774	871.646	276.743	-853.703	884.698	316.219	-836.898	858.4059999999999	249.332	-544.011	1130.96	699.925	-0	0	0	-0	0	0	-0	0	0	-591.2859999999999	867.1849999999999	720.33	-544.505	877.678	720.183	-603.676	880.612	675.8869999999999	-645.005	844.321	648.846	-733.735	634.436	621.6079999999999	-758.745	730.447	595.229	-0	0	0	-0	0	0	-795.601	545.806	574.7	-714.562	483.999	631.366	-674.671	215.139	634.377	-737.222	337.334	567.824	-0	0	0	-0	0	0	-626.534	816.301	305.625	-617.545	602.146	352.544	-700.893	656.986	406.008	-0	0	0	-0	0	0	-673.952	509.91	436.286	-0	0	0	-513.115	208.004	359.331	-589.982	322.95	432.682	-0	0	0	-0	0	0	-404.217	79.7153	407.31	-704.241	64.14790000000001	416.035	-623.705	43.073	464.745	-616.362	42.998	347.704	-505.535	43.6911	356.692	-567.424	132.623	409.896	-668.236	53.1353	459.246	-665.062	54.0168	365.878	-603.538	95.5591	577.354	-899.077	79.9692	611.888	-825.883	62.0132	552.759	-801.394	59.6556	664.566	-694.569	57.4678	643.635	-767.365	147.996	602.0359999999999	-865.944	63.2462	563.976	-855.991	61.7239	660.2140000000001	-0	0	0	-510.224	1055.07	449.097	-200	0	0	-0	0	200	-0	200	0	
